<svg width="173" height="78" viewBox="0 0 173 78" fill="none" xmlns="http://www.w3.org/2000/svg">
<path d="M6.45678 72.458C4.30302 65.2289 2.16232 58.0473 0 50.7931C0.234284 50.7796 0.424254 50.7593 0.614244 50.7591C2.78512 50.7568 4.95618 50.7721 7.12675 50.746C7.58484 50.7405 7.74188 50.8959 7.85405 51.3272C9.2947 56.8668 10.7563 62.4009 12.2143 67.9359C12.2756 68.1685 12.3532 68.3968 12.5411 68.6476C12.6153 68.4119 12.6935 68.1774 12.7629 67.9403C14.3768 62.4276 15.9974 56.9169 17.59 51.3981C17.7351 50.8952 17.9389 50.7374 18.4564 50.7446C20.6878 50.7752 22.92 50.7766 25.1513 50.7434C25.6651 50.7357 25.8318 50.9177 25.9671 51.3855C27.5964 57.0215 29.2494 62.6505 30.8984 68.2807C30.9422 68.4303 31.0103 68.5728 31.1078 68.8231C32.0837 65.1108 33.0291 61.5109 33.9768 57.9117C34.563 55.6853 35.1549 53.4604 35.7379 51.2332C35.8079 50.9658 35.8478 50.7471 36.2222 50.7499C38.5755 50.7674 40.929 50.761 43.2824 50.765C43.3399 50.7651 43.3974 50.794 43.5242 50.828C43.4542 51.1019 43.395 51.3723 43.316 51.6367C40.8106 60.0286 38.2997 68.4189 35.8053 76.8142C35.6635 77.2915 35.4821 77.4939 34.9436 77.4851C32.7125 77.4488 30.4801 77.4509 28.2488 77.4843C27.7382 77.492 27.5554 77.3045 27.4083 76.8498C25.6027 71.2691 23.7779 65.6947 21.958 60.1186C21.9213 60.0062 21.8837 59.894 21.8014 59.6452C21.6919 59.9117 21.6193 60.0602 21.5685 60.216C19.7734 65.7151 17.9714 71.2119 16.2001 76.7188C16.0143 77.2965 15.774 77.5011 15.1497 77.488C12.9392 77.4415 10.727 77.4589 8.51575 77.4797C8.10114 77.4836 7.91031 77.3738 7.79309 76.9543C7.37674 75.4644 6.91462 73.9874 6.45678 72.458Z" fill="#009EE2"/>
<path d="M153.778 58.9942C153.063 58.3358 152.353 57.6709 151.626 57.0261C151.521 56.9326 151.331 56.8984 151.18 56.8982C147.894 56.8926 144.608 56.8957 141.322 56.8986C141.283 56.8987 141.244 56.9196 141.141 56.9496C141.141 63.752 141.141 70.5733 141.141 77.4312C138.732 77.4312 136.387 77.4312 133.995 77.4312C133.995 64.9912 133.995 52.545 133.995 40.0708C136.365 40.0708 138.707 40.0708 141.1 40.0708C141.1 43.6164 141.1 47.137 141.1 50.7549C141.383 50.7549 141.616 50.7549 141.85 50.7549C146.029 50.7549 150.208 50.7457 154.387 50.7721C154.727 50.7742 155.138 50.9367 155.393 51.1645C157.195 52.7785 158.971 54.4223 160.736 56.0782C160.914 56.2449 161.05 56.5551 161.051 56.7991C161.067 63.5304 161.064 70.2618 161.063 76.9932C161.063 77.1309 161.051 77.2687 161.042 77.4665C158.681 77.4665 156.355 77.4665 153.96 77.4144C153.888 71.4503 153.885 65.5383 153.876 59.6263C153.875 59.4155 153.812 59.2049 153.778 58.9942Z" fill="#FDFDFD"/>
<path d="M89.6086 50.2113C90.907 50.2112 92.1448 50.1951 93.3816 50.2243C93.6354 50.2303 93.9421 50.3425 94.1282 50.5123C96.1412 52.3489 98.1385 54.2028 100.127 56.0661C100.285 56.2143 100.438 56.4666 100.439 56.6713C100.458 60.0574 100.451 63.4437 100.448 66.8299C100.448 66.8861 100.417 66.9424 100.389 67.0383C94.0674 67.0383 87.7447 67.0383 81.3897 67.0383C81.2866 67.926 81.1812 68.7131 82.0428 69.3361C82.8448 69.9158 83.441 70.8957 84.3082 71.2399C85.152 71.5749 86.2247 71.3328 87.1969 71.3336C90.6659 71.3364 94.135 71.3347 97.604 71.3347C97.8258 71.3347 98.0475 71.3347 98.3075 71.3347C98.3075 73.3762 98.3075 75.3834 98.3075 77.4392C98.1038 77.4491 97.9078 77.4669 97.7118 77.467C92.2546 77.4685 86.7975 77.4745 81.3404 77.4522C81.0183 77.4508 80.6256 77.2986 80.3866 77.0819C78.3982 75.279 76.4326 73.4503 74.479 71.6093C74.3013 71.4418 74.1629 71.1334 74.162 70.8898C74.1435 66.1981 74.1427 61.5064 74.1632 56.8147C74.1644 56.5556 74.318 56.2282 74.5089 56.0496C76.4837 54.2014 78.4741 52.3697 80.4814 50.5574C80.6954 50.3642 81.0441 50.2285 81.3317 50.2259C84.0702 50.2013 86.809 50.2113 89.6086 50.2113ZM82.0767 58.3444C81.8302 58.6068 81.4041 58.8485 81.3712 59.1357C81.2755 59.9713 81.3373 60.8252 81.3373 61.6542C85.3662 61.6542 89.3076 61.6542 93.2846 61.6542C93.2846 60.8978 93.3117 60.185 93.27 59.4763C93.2553 59.2259 93.132 58.924 92.9558 58.7514C92.2157 58.0268 91.4511 57.3252 90.6624 56.6544C90.4562 56.479 90.1339 56.3704 89.86 56.3599C88.9289 56.3243 87.9956 56.3425 87.0633 56.3474C86.1329 56.3523 85.1063 56.1215 84.299 56.4433C83.4679 56.7746 82.8506 57.6483 82.0767 58.3444Z" fill="#FDFDFD"/>
<path d="M122.845 77.4682C119.253 77.4682 115.723 77.4612 112.193 77.4776C111.774 77.4796 111.477 77.354 111.174 77.0704C109.245 75.2623 107.289 73.4818 105.369 71.6646C105.153 71.4609 104.991 71.0844 104.989 70.787C104.965 66.3395 104.965 61.8918 104.989 57.4442C104.99 57.1464 105.148 56.7683 105.362 56.5655C107.311 54.7187 109.284 52.8983 111.264 51.0846C111.441 50.9226 111.709 50.7688 111.936 50.7681C117.596 50.7507 123.257 50.7543 128.918 50.7557C128.977 50.7557 129.036 50.7767 129.13 50.7946C129.13 52.8015 129.13 54.8074 129.13 56.8931C128.906 56.8931 128.69 56.8931 128.475 56.8931C124.194 56.8931 119.913 56.8861 115.632 56.9077C115.324 56.9092 114.959 57.0481 114.722 57.2462C113.943 57.8978 113.196 58.5911 112.471 59.3035C112.296 59.4755 112.163 59.7822 112.161 60.0281C112.14 62.7414 112.138 65.455 112.163 68.1683C112.165 68.4294 112.318 68.7516 112.507 68.9376C113.23 69.6517 113.98 70.3409 114.756 70.9964C114.978 71.1837 115.321 71.3194 115.608 71.3208C119.889 71.3411 124.171 71.3348 128.452 71.3348C128.67 71.3348 128.888 71.3348 129.136 71.3348C129.136 73.3833 129.136 75.3755 129.136 77.4682C127.064 77.4682 124.985 77.4682 122.845 77.4682Z" fill="#FDFDFD"/>
<path d="M68.813 77.4609C65.5874 77.4634 62.3618 77.474 59.1364 77.4532C58.871 77.4515 58.5533 77.2958 58.3507 77.111C56.383 75.3153 54.4263 73.507 52.4923 71.6746C52.277 71.4706 52.1117 71.0956 52.11 70.7988C52.0859 66.4132 52.0935 62.0273 52.0935 57.6415C52.0935 57.4205 52.0935 57.1996 52.0935 56.9209C50.4967 56.9209 48.9445 56.9209 47.3438 56.9209C47.3438 54.8546 47.3438 52.8465 47.3438 50.7665C48.8856 50.7665 50.4575 50.7665 52.0956 50.7665C52.0956 48.4362 52.0956 46.177 52.1588 43.8553C53.5514 43.7912 54.8808 43.782 56.2101 43.7901C57.2351 43.7963 58.26 43.8241 59.2849 43.8423C59.2849 46.1205 59.2849 48.3988 59.2849 50.7452C61.9396 50.7452 64.5627 50.7452 67.2042 50.7452C67.2042 52.8077 67.2042 54.8019 67.2042 56.8727C64.5755 56.8727 61.9554 56.8727 59.2988 56.8727C59.2843 57.1231 59.2652 57.2999 59.2651 57.4767C59.2634 61.0238 59.2545 64.571 59.2807 68.118C59.2829 68.4151 59.4672 68.7579 59.6661 68.9957C59.9766 69.3668 60.4174 69.6286 60.7227 70.003C61.6499 71.14 62.8034 71.4817 64.2473 71.363C65.737 71.2405 67.245 71.3446 68.7919 71.42C68.8301 73.4806 68.8215 75.4708 68.813 77.4609Z" fill="#FDFDFD"/>
<path d="M172.959 73.7351C173.227 75.7044 172.176 77.2782 170.385 77.6589C168.721 78.0126 167.024 76.9754 166.567 75.3253C166.073 73.5423 167.115 71.6792 168.863 71.22C170.711 70.7346 172.478 71.8035 172.959 73.7351ZM167.995 76.5975C168.149 76.6961 168.296 76.8077 168.457 76.891C169.594 77.4787 170.94 77.2328 171.79 76.2883C172.626 75.3603 172.753 73.9833 172.1 72.9499C171.407 71.8535 170.16 71.3751 168.938 71.7367C166.838 72.3582 166.302 74.9061 167.995 76.5975Z" fill="#EBECEE"/>
<path d="M170.234 73.1C171.015 73.6313 171.057 74.095 170.43 74.874C170.601 75.1322 170.777 75.3964 170.952 75.6607C170.91 75.715 170.868 75.7694 170.826 75.8238C170.595 75.6699 170.293 75.5648 170.149 75.3517C169.874 74.9441 169.568 74.7503 169.033 74.9263C169.021 75.0455 169.035 75.2081 168.985 75.3485C168.936 75.4898 168.824 75.6091 168.74 75.7381C168.648 75.6167 168.48 75.498 168.476 75.3735C168.45 74.6429 168.463 73.911 168.463 73.0938C169.061 73.0938 169.621 73.0938 170.234 73.1ZM169.085 73.5759C169.047 73.8379 169.009 74.1 168.963 74.4189C169.327 74.4189 169.603 74.4727 169.841 74.4013C170.022 74.3471 170.156 74.1334 170.311 73.9907C170.162 73.8458 170.036 73.6388 169.859 73.5728C169.662 73.5 169.418 73.5565 169.085 73.5759Z" fill="#E8EAEC"/>
<path d="M127.905 15.2478C127.889 15.2472 127.875 15.2537 127.833 15.2758C127.089 15.2859 126.377 15.2875 125.665 15.2891C125.652 15.1049 125.64 14.9207 125.625 14.703C124.948 14.703 124.278 14.7474 123.617 14.6906C122.946 14.633 122.49 14.8667 122.015 15.3412C115.776 21.5755 109.515 27.7869 103.259 34.0045C103.179 34.0842 103.105 34.17 103.026 34.2551C101.683 32.9182 100.363 31.6048 99.0516 30.3003C97.6957 31.6494 96.3702 32.9683 95.0544 34.2776C93.84 33.0732 92.6812 31.9239 91.5121 30.7643C91.7541 30.5398 92.0118 30.3008 92.2739 30.0577C93.1413 30.9225 94.0382 31.8168 94.9163 32.6924C96.0135 31.5981 97.073 30.5414 98.1219 29.4953C91.9441 23.3563 85.729 17.1802 79.5156 11.0059C79.8211 10.7098 80.0778 10.4609 80.3515 10.1957C86.5417 16.35 92.7564 22.5285 98.9454 28.6815C105.297 22.3674 111.635 16.067 117.988 9.75124C117.908 9.75124 117.82 9.75124 117.732 9.75124C115.17 9.75121 112.608 9.75356 110.046 9.74667C109.841 9.74612 109.699 9.80717 109.555 9.95022C105.809 13.6785 102.058 17.4025 98.3083 21.128C98.2347 21.2012 98.17 21.2833 98.1092 21.3522C95.4677 18.7216 92.8476 16.1125 90.2285 13.5043C90.4617 13.2696 90.7094 13.0202 90.9561 12.772C93.3187 15.1188 95.6752 17.4598 98.0475 19.8163C98.1556 19.7163 98.2386 19.6442 98.3164 19.5669C101.903 16.0027 105.49 12.4394 109.071 8.86964C109.241 8.69992 109.409 8.63671 109.645 8.63724C112.719 8.64409 115.793 8.63918 118.867 8.64687C119.107 8.64747 119.272 8.57415 119.439 8.40691C121.179 6.66684 122.928 4.93627 124.667 3.19636C124.82 3.04319 124.972 2.98446 125.187 2.98514C127.519 2.99247 129.851 2.98972 132.182 2.98973C132.284 2.98973 132.386 2.98973 132.506 2.98973C132.517 2.79523 132.527 2.62204 132.578 2.42837C133.33 2.40701 134.042 2.40614 134.754 2.40527C134.754 3.14189 134.754 3.8785 134.754 4.63411C134.029 4.63411 133.293 4.63411 132.532 4.63411C132.532 4.46313 132.532 4.29098 132.532 4.10017C132.429 4.09359 132.35 4.08401 132.27 4.08398C130.043 4.08316 127.816 4.08141 125.589 4.08847C125.468 4.08885 125.312 4.12931 125.23 4.20957C123.774 5.64216 122.326 7.08373 120.877 8.52403C120.857 8.54385 120.846 8.57227 120.815 8.62107C125.898 8.62107 130.961 8.62107 136.054 8.62107C136.054 8.44704 136.054 8.26536 136.054 8.06708C136.822 8.06708 137.559 8.06708 138.325 8.06708C138.325 8.78936 138.325 9.50332 138.297 10.2513C137.54 10.2886 136.811 10.292 136.082 10.2954C136.075 10.13 136.067 9.96456 136.058 9.76875C135.969 9.7629 135.879 9.75191 135.79 9.75189C130.5 9.75107 125.21 9.74978 119.92 9.75819C119.773 9.75842 119.586 9.82401 119.484 9.92519C112.95 16.4074 106.423 22.8965 99.8955 29.3852C99.8596 29.4208 99.8273 29.4599 99.8075 29.4818C100.879 30.5454 101.943 31.601 103.079 32.7286C103.124 32.6563 103.168 32.5424 103.248 32.4633C109.492 26.2517 115.74 20.0436 121.982 13.8301C122.145 13.6688 122.302 13.606 122.528 13.6085C123.552 13.6196 124.576 13.6133 125.625 13.6133C125.625 13.4279 125.625 13.2565 125.625 13.0518C126.386 13.0518 127.122 13.0518 127.88 13.0872C127.903 13.831 127.904 14.5394 127.905 15.2478Z" fill="#FAFAFB"/>
<path d="M54.0784 12.7031C58.6258 17.2234 63.1734 21.7435 67.7206 26.2641C69.6504 28.1826 71.5792 30.102 73.5089 32.0206C73.5821 32.0934 73.6588 32.1626 73.7048 32.206C74.8684 31.0539 76.0206 29.913 77.1911 28.754C77.1429 28.7024 77.0685 28.6177 76.9886 28.5384C70.3489 21.9377 63.7093 15.3368 57.0633 8.74232C56.96 8.6399 56.7778 8.56353 56.6323 8.56338C48.7059 8.55488 40.7794 8.55586 32.853 8.55587C32.7811 8.55587 32.7092 8.55587 32.61 8.55587C32.5955 8.75188 32.5823 8.93153 32.5684 9.12008C31.823 9.12008 31.0958 9.12008 30.3511 9.12008C30.3511 8.3825 30.3511 7.65922 30.3511 6.91467C31.0801 6.91467 31.8076 6.91467 32.5686 6.91467C32.5796 7.07413 32.5914 7.24433 32.6044 7.433C40.2972 7.433 47.9789 7.433 55.7042 7.433C55.6466 7.35813 55.6077 7.29395 55.5561 7.24251C53.731 5.42577 51.9057 3.60916 50.075 1.79802C49.9955 1.71938 49.8646 1.64872 49.7571 1.64798C48.3664 1.63843 46.9756 1.64215 45.5848 1.64349C45.5553 1.64352 45.5259 1.65524 45.4729 1.66651C45.4641 1.8374 45.4553 2.0089 45.4455 2.20125C44.707 2.20125 43.9801 2.20125 43.228 2.20125C43.228 1.47974 43.228 0.749089 43.228 0C43.957 0 44.6843 0 45.4426 0C45.4515 0.162605 45.4603 0.323818 45.4717 0.532407C45.5857 0.532407 45.6959 0.532407 45.8061 0.532406C47.2178 0.532401 48.6296 0.538487 50.0412 0.526741C50.2936 0.524641 50.466 0.604096 50.6414 0.779334C52.7728 2.90898 54.9141 5.02893 57.0446 7.15946C57.2505 7.36531 57.4515 7.46096 57.7523 7.45955C60.4397 7.4469 63.1272 7.45493 65.8146 7.44721C66.0427 7.44655 66.2011 7.51174 66.3619 7.67181C70.7581 12.0485 75.1592 16.4203 79.5591 20.7934C79.6245 20.8583 79.6841 20.9291 79.7541 21.0056C79.4967 21.2545 79.251 21.492 78.9758 21.7581C78.8976 21.6848 78.8079 21.6049 78.7228 21.5203C74.4634 17.2869 70.2031 13.0544 65.9498 8.8149C65.7553 8.621 65.563 8.54923 65.2929 8.55046C63.1597 8.56016 61.0264 8.55585 58.8932 8.55585C58.7805 8.55585 58.6678 8.55585 58.598 8.55585C65.0823 14.9991 71.5764 21.4521 78.0878 27.9224C80.1502 25.8606 82.276 23.7356 84.4105 21.6016C84.705 21.9053 84.9427 22.1504 85.1982 22.414C83.0777 24.5152 80.9429 26.6305 78.8218 28.7323C80.1716 30.0654 81.4739 31.3515 82.7842 32.6455C84.9015 30.5264 87.0433 28.3828 89.1694 26.2548C89.4615 26.5557 89.7046 26.8061 89.9226 27.0308C87.5564 29.3859 85.1379 31.7931 82.6931 34.2265C81.1757 32.7029 79.6257 31.1466 78.0497 29.5642C76.6071 31.0065 75.1969 32.4164 73.7159 33.897C73.6063 33.7414 73.5475 33.6252 73.4596 33.5378C66.94 27.0527 60.4174 20.5707 53.9 14.0835C53.7091 13.8934 53.522 13.8078 53.2468 13.8086C50.0784 13.8183 46.9099 13.8148 43.7414 13.8148C43.6181 13.8148 43.4948 13.8148 43.3474 13.8148C43.3385 14.0025 43.3308 14.1647 43.3219 14.3529C42.5855 14.3529 41.851 14.3529 41.0967 14.3529C41.0967 13.6317 41.0967 12.9085 41.0967 12.1615C41.8278 12.1615 42.5629 12.1615 43.3343 12.1615C43.3343 12.3022 43.3343 12.4364 43.3463 12.625C43.4085 12.6899 43.4587 12.7092 43.5089 12.7092C47.0321 12.7081 50.5552 12.7055 54.0784 12.7031Z" fill="#009DE0"/>
</svg>
