<svg width="27" height="24" viewBox="0 0 27 24" fill="none" xmlns="http://www.w3.org/2000/svg">
<g filter="url(#filter0_ii_1359_35)">
<mask id="path-1-inside-1_1359_35" fill="white">
<path d="M3.36293 5.21899L1.87404 23.3999H0L1.39383 8.0459L3.36293 5.21899Z"/>
</mask>
<path d="M3.36293 5.21899L1.87404 23.3999H0L1.39383 8.0459L3.36293 5.21899Z" stroke="url(#paint0_linear_1359_35)" stroke-opacity="0.5" stroke-width="6" mask="url(#path-1-inside-1_1359_35)"/>
<mask id="path-2-inside-2_1359_35" fill="white">
<path d="M24.6465 8.17749L25.7517 23.4H27.0002L25.8236 10.1786L24.6465 8.17749Z"/>
</mask>
<path d="M24.6465 8.17749L25.7517 23.4H27.0002L25.8236 10.1786L24.6465 8.17749Z" stroke="url(#paint1_linear_1359_35)" stroke-opacity="0.5" stroke-width="6" mask="url(#path-2-inside-2_1359_35)"/>
<mask id="path-3-inside-3_1359_35" fill="white">
<path d="M9.08025 3.47968L5.4292 23.4H13.2603V0L9.08025 3.47968ZM12.4919 19.659L6.59499 21.6592L6.93138 19.5716L12.4924 17.5277V19.659H12.4919ZM12.4919 16.528L7.01511 18.5715L7.35101 16.4839L12.4919 14.3962V16.528ZM12.4919 13.397L7.51945 15.3536L7.85585 13.2655L12.4919 11.2657V13.397ZM12.4919 10.3084L8.12033 12.3528L8.45623 10.2647L12.4914 8.17662L12.4919 10.3084ZM12.4919 7.1328L8.62418 9.22132L8.96057 7.13369L12.4919 5.00192V7.1328ZM12.4919 4.04506L9.12852 6.08854L9.60872 4.04506L12.4919 1.91373V4.04506Z"/>
</mask>
<path d="M9.08025 3.47968L5.4292 23.4H13.2603V0L9.08025 3.47968ZM12.4919 19.659L6.59499 21.6592L6.93138 19.5716L12.4924 17.5277V19.659H12.4919ZM12.4919 16.528L7.01511 18.5715L7.35101 16.4839L12.4919 14.3962V16.528ZM12.4919 13.397L7.51945 15.3536L7.85585 13.2655L12.4919 11.2657V13.397ZM12.4919 10.3084L8.12033 12.3528L8.45623 10.2647L12.4914 8.17662L12.4919 10.3084ZM12.4919 7.1328L8.62418 9.22132L8.96057 7.13369L12.4919 5.00192V7.1328ZM12.4919 4.04506L9.12852 6.08854L9.60872 4.04506L12.4919 1.91373V4.04506Z" stroke="url(#paint2_linear_1359_35)" stroke-opacity="0.5" stroke-width="6" mask="url(#path-3-inside-3_1359_35)"/>
<mask id="path-4-inside-4_1359_35" fill="white">
<path d="M17.0548 2.60931L13.6914 0V23.4H21.2821L17.0548 2.60931ZM14.1726 1.91373L16.6702 3.52293L17.1272 5.39341L14.1726 3.82702V1.91373ZM14.1726 5.00192L17.1272 6.29588L17.4868 8.08967L14.1726 6.91566V5.00192ZM14.1726 8.08967L17.4868 9.22177L17.9419 11.1783L14.1726 10.0038V8.08967ZM14.1726 11.1774L17.9419 12.3528L18.4245 14.6459L14.1726 13.3092V11.1774ZM14.1726 14.2656L18.5442 15.6799L19.0165 17.8171L14.1731 16.3425L14.1726 14.2656ZM14.1726 17.3538L19.0165 18.9416L19.5603 20.9356L14.1731 19.4744V17.3538H14.1726Z"/>
</mask>
<path d="M17.0548 2.60931L13.6914 0V23.4H21.2821L17.0548 2.60931ZM14.1726 1.91373L16.6702 3.52293L17.1272 5.39341L14.1726 3.82702V1.91373ZM14.1726 5.00192L17.1272 6.29588L17.4868 8.08967L14.1726 6.91566V5.00192ZM14.1726 8.08967L17.4868 9.22177L17.9419 11.1783L14.1726 10.0038V8.08967ZM14.1726 11.1774L17.9419 12.3528L18.4245 14.6459L14.1726 13.3092V11.1774ZM14.1726 14.2656L18.5442 15.6799L19.0165 17.8171L14.1731 16.3425L14.1726 14.2656ZM14.1726 17.3538L19.0165 18.9416L19.5603 20.9356L14.1731 19.4744V17.3538H14.1726Z" stroke="url(#paint3_linear_1359_35)" stroke-opacity="0.5" stroke-width="6" mask="url(#path-4-inside-4_1359_35)"/>
<mask id="path-5-inside-5_1359_35" fill="white">
<path d="M3.74712 5.39331L2.20996 23.3999H5.09219L5.49014 21.1812L2.83054 20.5502L2.92658 19.5278L5.65169 20.2827L5.77827 19.576L2.97731 18.8398L3.07335 17.8174L5.93883 18.6882L6.06639 17.9717L3.10388 17.186L3.19993 16.1636L6.22498 17.0929L6.3555 16.3678L3.26691 15.506L3.36295 14.4831L6.51261 15.4975L6.6451 14.7627L3.36344 13.8214L3.45998 12.799L6.72538 13.8758V14.3128L7.35088 10.8304V6.78536L3.74712 5.39331ZM6.7968 13.1133L3.57917 12.0691L3.67521 11.0462L6.7968 12.1997V13.1133ZM6.86969 11.439L3.74022 10.4224L3.83675 9.40002L6.86969 10.5259V11.439ZM6.94209 9.76431L3.91556 8.78604L4.0116 7.76363L6.94258 8.85114L6.94209 9.76431ZM7.01449 8.08957L3.98747 7.11175L4.08351 6.08889L7.01499 7.1764V8.08957H7.01449Z"/>
</mask>
<path d="M3.74712 5.39331L2.20996 23.3999H5.09219L5.49014 21.1812L2.83054 20.5502L2.92658 19.5278L5.65169 20.2827L5.77827 19.576L2.97731 18.8398L3.07335 17.8174L5.93883 18.6882L6.06639 17.9717L3.10388 17.186L3.19993 16.1636L6.22498 17.0929L6.3555 16.3678L3.26691 15.506L3.36295 14.4831L6.51261 15.4975L6.6451 14.7627L3.36344 13.8214L3.45998 12.799L6.72538 13.8758V14.3128L7.35088 10.8304V6.78536L3.74712 5.39331ZM6.7968 13.1133L3.57917 12.0691L3.67521 11.0462L6.7968 12.1997V13.1133ZM6.86969 11.439L3.74022 10.4224L3.83675 9.40002L6.86969 10.5259V11.439ZM6.94209 9.76431L3.91556 8.78604L4.0116 7.76363L6.94258 8.85114L6.94209 9.76431ZM7.01449 8.08957L3.98747 7.11175L4.08351 6.08889L7.01499 7.1764V8.08957H7.01449Z" stroke="url(#paint4_linear_1359_35)" stroke-opacity="0.5" stroke-width="6" mask="url(#path-5-inside-5_1359_35)"/>
<mask id="path-6-inside-6_1359_35" fill="white">
<path d="M24.4055 7.95874L20.8022 9.2634L20.1777 16.3093L20.5126 17.8074L24.5267 16.9094L24.5981 18.0946L20.7441 18.8419L20.9076 19.5722L24.6459 18.8981L24.7621 20.1751L21.1445 20.6343L21.7632 23.3988H25.3187L24.4055 7.95874ZM21.1229 9.97235L24.0765 8.99007L24.1282 10.1119L21.0421 10.9551L21.1229 9.97235ZM20.9623 11.5401L24.2267 10.6251L24.2908 11.6319L20.882 12.5219L20.9623 11.5401ZM20.8018 13.1074L24.2918 12.1251L24.3449 13.1894L20.7215 14.0896L20.8018 13.1074ZM20.6417 14.6751L24.3981 13.6928L24.4415 14.7759L20.5614 15.6578L20.6417 14.6751ZM20.4013 17.2246L20.4806 16.2433L24.4415 15.261L24.5267 16.295L20.4013 17.2246Z"/>
</mask>
<path d="M24.4055 7.95874L20.8022 9.2634L20.1777 16.3093L20.5126 17.8074L24.5267 16.9094L24.5981 18.0946L20.7441 18.8419L20.9076 19.5722L24.6459 18.8981L24.7621 20.1751L21.1445 20.6343L21.7632 23.3988H25.3187L24.4055 7.95874ZM21.1229 9.97235L24.0765 8.99007L24.1282 10.1119L21.0421 10.9551L21.1229 9.97235ZM20.9623 11.5401L24.2267 10.6251L24.2908 11.6319L20.882 12.5219L20.9623 11.5401ZM20.8018 13.1074L24.2918 12.1251L24.3449 13.1894L20.7215 14.0896L20.8018 13.1074ZM20.6417 14.6751L24.3981 13.6928L24.4415 14.7759L20.5614 15.6578L20.6417 14.6751ZM20.4013 17.2246L20.4806 16.2433L24.4415 15.261L24.5267 16.295L20.4013 17.2246Z" stroke="url(#paint5_linear_1359_35)" stroke-opacity="0.5" stroke-width="6" mask="url(#path-6-inside-6_1359_35)"/>
</g>
<defs>
<filter id="filter0_ii_1359_35" x="0" y="0" width="27" height="27.3999" filterUnits="userSpaceOnUse" color-interpolation-filters="sRGB">
<feFlood flood-opacity="0" result="BackgroundImageFix"/>
<feBlend mode="normal" in="SourceGraphic" in2="BackgroundImageFix" result="shape"/>
<feColorMatrix in="SourceAlpha" type="matrix" values="0 0 0 0 0 0 0 0 0 0 0 0 0 0 0 0 0 0 127 0" result="hardAlpha"/>
<feOffset dy="4"/>
<feGaussianBlur stdDeviation="2"/>
<feComposite in2="hardAlpha" operator="arithmetic" k2="-1" k3="1"/>
<feColorMatrix type="matrix" values="0 0 0 0 0 0 0 0 0 0 0 0 0 0 0 0 0 0 0.25 0"/>
<feBlend mode="normal" in2="shape" result="effect1_innerShadow_1359_35"/>
<feColorMatrix in="SourceAlpha" type="matrix" values="0 0 0 0 0 0 0 0 0 0 0 0 0 0 0 0 0 0 127 0" result="hardAlpha"/>
<feOffset dy="4"/>
<feGaussianBlur stdDeviation="2"/>
<feComposite in2="hardAlpha" operator="arithmetic" k2="-1" k3="1"/>
<feColorMatrix type="matrix" values="0 0 0 0 0 0 0 0 0 0 0 0 0 0 0 0 0 0 0.25 0"/>
<feBlend mode="normal" in2="effect1_innerShadow_1359_35" result="effect2_innerShadow_1359_35"/>
</filter>
<linearGradient id="paint0_linear_1359_35" x1="3.11071" y1="23.3999" x2="-4.61712" y2="21.6132" gradientUnits="userSpaceOnUse">
<stop stop-color="#48647D"/>
<stop offset="0.234375" stop-color="#6B8299"/>
<stop offset="0.442708" stop-color="#DAE2EB"/>
<stop offset="0.682292" stop-color="#8CA2B7"/>
<stop offset="1" stop-color="#EDF2F7"/>
</linearGradient>
<linearGradient id="paint1_linear_1359_35" x1="26.8237" y1="23.4" x2="21.331" y2="22.3384" gradientUnits="userSpaceOnUse">
<stop stop-color="#48647D"/>
<stop offset="0.234375" stop-color="#6B8299"/>
<stop offset="0.442708" stop-color="#DAE2EB"/>
<stop offset="0.682292" stop-color="#8CA2B7"/>
<stop offset="1" stop-color="#EDF2F7"/>
</linearGradient>
<linearGradient id="paint2_linear_1359_35" x1="12.6729" y1="23.4" x2="-3.46115" y2="16.6509" gradientUnits="userSpaceOnUse">
<stop stop-color="#48647D"/>
<stop offset="0.234375" stop-color="#6B8299"/>
<stop offset="0.442708" stop-color="#DAE2EB"/>
<stop offset="0.682292" stop-color="#8CA2B7"/>
<stop offset="1" stop-color="#EDF2F7"/>
</linearGradient>
<linearGradient id="paint3_linear_1359_35" x1="20.7128" y1="23.4" x2="4.93187" y2="17.0012" gradientUnits="userSpaceOnUse">
<stop stop-color="#48647D"/>
<stop offset="0.234375" stop-color="#6B8299"/>
<stop offset="0.442708" stop-color="#DAE2EB"/>
<stop offset="0.682292" stop-color="#8CA2B7"/>
<stop offset="1" stop-color="#EDF2F7"/>
</linearGradient>
<linearGradient id="paint4_linear_1359_35" x1="6.96531" y1="23.3999" x2="-4.07387" y2="19.4604" gradientUnits="userSpaceOnUse">
<stop stop-color="#48647D"/>
<stop offset="0.234375" stop-color="#6B8299"/>
<stop offset="0.442708" stop-color="#DAE2EB"/>
<stop offset="0.682292" stop-color="#8CA2B7"/>
<stop offset="1" stop-color="#EDF2F7"/>
</linearGradient>
<linearGradient id="paint5_linear_1359_35" x1="24.9331" y1="23.3988" x2="14.3254" y2="18.984" gradientUnits="userSpaceOnUse">
<stop stop-color="#48647D"/>
<stop offset="0.234375" stop-color="#6B8299"/>
<stop offset="0.442708" stop-color="#DAE2EB"/>
<stop offset="0.682292" stop-color="#8CA2B7"/>
<stop offset="1" stop-color="#EDF2F7"/>
</linearGradient>
</defs>
</svg>
